# xmcd
#
# Track frame offsets: 
#        150
#        13683
#        28811
#        47295
#        62354
#        79114
#        93231
#        106052
#        122927
#        138811
#        154448
#
# Disc length: 2362 seconds
#
# Revision: 0
# Processed by: cddbd v1.4PL0 Copyright (c) Steve Scherf et al.
# Submitted via: ExactAudioCopy v0.90b4
#
DISCID=8009380b
DTITLE=Pete Benz - Mexico Moon
DYEAR=2003
DGENRE=Country
TTITLE0=Fuel To The Fire
TTITLE1=You Make Me Look Good
TTITLE2=Saving Myself
TTITLE3=Mexico Moon
TTITLE4=Stronger Than Me
TTITLE5=No Good In Goodbye
TTITLE6=Heart Don't Fail Me Now
TTITLE7=The Bottle
TTITLE8=I'm Gonna Live
TTITLE9=I See What You're Sayin
TTITLE10=While I Wait To Go To Heaven
EXTD=
EXTT0=
EXTT1=
EXTT2=
EXTT3=
EXTT4=
EXTT5=
EXTT6=
EXTT7=
EXTT8=
EXTT9=
EXTT10=
PLAYORDER=
